<svg width="90" height="45" version="1.1" id="Layer_3" xmlns="http://www.w3.org/2000/svg" x="0" y="0" viewBox="0 0 64 64" style="enable-background:new 0 0 64 64" xml:space="preserve"><style>.st0{fill:#faf5f5}.st1{fill:#63312d}.st10{fill:#a9ebff}.st11{fill:#52badb}</style><path d="m53.357 31.198.017-9.117-6.407-1.444a18.514 18.514 0 0 0-.913-2.241l3.517-5.531-6.441-6.453-5.538 3.508a18.501 18.501 0 0 0-2.238-.919l-1.432-6.408h-9.117l-1.432 6.408c-.729.249-1.437.523-2.122.856l-5.508-3.545-6.488 6.406 3.48 5.561c-.361.72-.669 1.46-.937 2.23l-6.413 1.397-.05 9.117 6.403 1.468c.259.773.548 1.522.901 2.246l-3.535 5.515 6.417 6.476 5.554-3.489c.721.36 1.462.665 2.233.93l1.409 6.412 9.117.033 1.456-6.405a18.43 18.43 0 0 0 2.244-.907l5.523 3.526 6.464-6.429-3.499-5.546c.359-.722.66-1.465.925-2.235l6.41-1.42z" style="fill:#84dbff"/><path class="st10" d="m48.388 21.883 4.984 1.124.002-.926-5.359-1.208c.132.332.257.668.373 1.01zM36.775 10.248c.771.263 1.516.562 2.238.919l5.43-3.439-1.313-1.316-5.538 3.508a16.255 16.255 0 0 0-.99-.445l.173.773zM6.806 23.153l6.413-1.397c.267-.77.575-1.51.937-2.23l-3.48-5.561 6.488-6.406 5.508 3.545a18.586 18.586 0 0 1 2.122-.856l1.432-6.408H34.2l-.279-1.247h-9.117l-1.432 6.408c-.729.249-1.437.523-2.122.856l-5.508-3.545-6.488 6.406 3.48 5.561c-.361.72-.669 1.46-.937 2.23l-6.413 1.397-.05 9.117 1.426.327.046-8.197zM10.526 41.5l3.535-5.515a18.364 18.364 0 0 1-.901-2.246l-1.056-.242c.164.421.338.836.536 1.242l-3.535 5.515 6.417 6.476.115-.072-5.111-5.158z"/><path class="st1" d="M33.834 51.115h-.002l-9.117-.033a.499.499 0 0 1-.486-.393l-1.349-6.14a18.725 18.725 0 0 1-1.774-.738l-5.318 3.342a.504.504 0 0 1-.621-.072L8.75 40.604a.5.5 0 0 1-.065-.621l3.385-5.281a19.125 19.125 0 0 1-.714-1.786l-6.131-1.405a.5.5 0 0 1-.389-.49l.05-9.117a.498.498 0 0 1 .394-.485l6.141-1.338c.224-.616.468-1.2.744-1.771l-3.332-5.324a.5.5 0 0 1 .072-.621l6.487-6.406a.5.5 0 0 1 .622-.065l5.274 3.395a19.15 19.15 0 0 1 1.658-.666l1.371-6.137a.5.5 0 0 1 .488-.391h9.116a.5.5 0 0 1 .488.391L35.78 8.62c.64.227 1.227.467 1.779.729l5.304-3.359a.5.5 0 0 1 .621.069l6.44 6.453a.5.5 0 0 1 .068.622l-3.367 5.296c.257.547.495 1.134.723 1.78l6.136 1.384a.5.5 0 0 1 .39.488l-.017 9.117a.499.499 0 0 1-.392.487l-6.139 1.36a18.837 18.837 0 0 1-.733 1.776l3.351 5.311a.5.5 0 0 1-.07.621l-6.465 6.429a.5.5 0 0 1-.622.067L37.5 43.874c-.542.254-1.131.49-1.784.719l-1.395 6.133a.499.499 0 0 1-.487.389zm-8.715-1.032 8.316.031 1.367-6.015a.496.496 0 0 1 .328-.363c.826-.278 1.54-.566 2.183-.883a.506.506 0 0 1 .49.027l5.185 3.312 5.896-5.864-3.284-5.207a.496.496 0 0 1-.024-.489c.33-.664.625-1.376.899-2.175a.5.5 0 0 1 .364-.326l6.02-1.334.015-8.316-6.017-1.356a.497.497 0 0 1-.363-.327 17.911 17.911 0 0 0-.887-2.181.501.501 0 0 1 .026-.489l3.302-5.192-5.875-5.887-5.2 3.294a.507.507 0 0 1-.489.025 17.784 17.784 0 0 0-2.178-.894.501.501 0 0 1-.327-.364l-1.345-6.018h-8.315L23.86 9.11a.5.5 0 0 1-.327.364c-.804.274-1.46.539-2.064.833a.501.501 0 0 1-.489-.029L15.809 6.95l-5.917 5.843 3.267 5.221a.496.496 0 0 1 .023.489 17.548 17.548 0 0 0-.911 2.17.501.501 0 0 1-.366.325L5.883 22.31l-.046 8.316 6.013 1.378a.5.5 0 0 1 .363.329c.279.834.565 1.55.876 2.187a.5.5 0 0 1-.028.488l-3.319 5.178 5.854 5.907 5.215-3.276a.499.499 0 0 1 .489-.023c.68.34 1.391.636 2.173.905a.498.498 0 0 1 .325.365l1.321 6.019z"/><path class="st11" d="M21.25 9.857a18.586 18.586 0 0 1 2.122-.856l.231-1.035-2.57-1.654h-5.291l5.508 3.545zM37.592 9.92l2.854-1.808-1.234-5.519h-5.291l1.432 6.408a18.45 18.45 0 0 1 2.239.919zM58.649 31.198l.017-9.117-6.407-1.444a18.514 18.514 0 0 0-.913-2.241l3.517-5.531-6.441-6.453h-5.291l6.441 6.453-3.517 5.531c.356.723.651 1.469.913 2.241l6.407 1.444-.017 9.117-6.41 1.421a18.423 18.423 0 0 1-.925 2.235l3.499 5.546-6.464 6.429h5.291l6.464-6.429-3.499-5.546c.359-.722.66-1.465.925-2.235l6.41-1.421zM23.308 44.171c-.77-.266-1.512-.57-2.233-.93l-5.554 3.489h5.291l2.686-1.688-.19-.871zM37.534 43.303c-.723.355-1.471.647-2.244.907l-1.452 6.386 5.287.019 1.25-5.498-2.841-1.814z"/><path class="st1" d="M21.249 10.357a.5.5 0 0 1-.271-.079l-5.507-3.545a.501.501 0 0 1 .27-.921h5.291c.096 0 .189.027.271.079l2.57 1.654a.5.5 0 0 1 .218.53L23.86 9.11a.5.5 0 0 1-.327.364 17.54 17.54 0 0 0-2.066.833.493.493 0 0 1-.218.05zm-3.807-3.544 3.844 2.475c.502-.232 1.04-.449 1.659-.667l.094-.422-2.153-1.386h-3.444zM37.592 10.42a.512.512 0 0 1-.222-.052 17.784 17.784 0 0 0-2.178-.894.501.501 0 0 1-.327-.364l-1.433-6.408a.5.5 0 0 1 .489-.61h5.292a.5.5 0 0 1 .488.391l1.233 5.52a.502.502 0 0 1-.221.532l-2.854 1.808a.502.502 0 0 1-.267.077zm-1.812-1.8c.64.227 1.227.467 1.779.729l2.322-1.471-1.069-4.785h-4.268L35.78 8.62zM48.349 47.329h-5.292a.5.5 0 0 1-.353-.855l6.181-6.146-3.285-5.207a.496.496 0 0 1-.024-.489c.33-.664.625-1.376.899-2.175a.5.5 0 0 1 .364-.326l6.02-1.334.015-8.316-6.017-1.356a.497.497 0 0 1-.363-.327 17.911 17.911 0 0 0-.887-2.181.501.501 0 0 1 .026-.489l3.302-5.192-6.157-6.169a.501.501 0 0 1 .354-.854h5.291c.133 0 .26.053.354.146l6.44 6.453a.5.5 0 0 1 .068.622l-3.367 5.295c.257.547.495 1.134.724 1.781l6.135 1.384a.5.5 0 0 1 .39.488l-.017 9.117a.499.499 0 0 1-.392.487l-6.138 1.36a19.193 19.193 0 0 1-.733 1.776l3.35 5.311a.5.5 0 0 1-.07.621l-6.464 6.429a.51.51 0 0 1-.354.146zm-4.08-1h3.874l6.033-6.001-3.284-5.207a.499.499 0 0 1-.025-.489c.333-.67.628-1.382.9-2.175a.5.5 0 0 1 .364-.326l6.019-1.334.015-8.316-6.016-1.356a.497.497 0 0 1-.363-.327 17.712 17.712 0 0 0-.888-2.181.501.501 0 0 1 .026-.489l3.302-5.192-6.011-6.022h-3.879l5.589 5.6a.5.5 0 0 1 .068.622l-3.367 5.296c.257.547.495 1.134.723 1.78l6.136 1.384a.5.5 0 0 1 .39.488l-.017 9.117a.499.499 0 0 1-.392.487l-6.139 1.36a18.837 18.837 0 0 1-.733 1.776l3.351 5.311a.5.5 0 0 1-.07.621l-5.606 5.573zM20.813 47.229h-5.292a.5.5 0 0 1-.265-.924l5.554-3.489a.499.499 0 0 1 .489-.023c.68.34 1.391.636 2.173.905a.498.498 0 0 1 .325.365l.191.871a.5.5 0 0 1-.223.531l-2.687 1.688a.493.493 0 0 1-.265.076zm-3.556-1h3.413l2.267-1.424-.057-.255a18.725 18.725 0 0 1-1.774-.738l-3.849 2.417zM39.126 51.115h-.002l-5.287-.02a.5.5 0 0 1-.486-.61l1.451-6.386a.496.496 0 0 1 .328-.363c.826-.278 1.54-.566 2.183-.883a.5.5 0 0 1 .49.028l2.841 1.814a.497.497 0 0 1 .218.531l-1.249 5.498a.498.498 0 0 1-.487.391zm-4.661-1.017 4.263.016 1.082-4.764-2.311-1.476c-.541.254-1.13.49-1.783.719l-1.251 5.505z"/><path class="st1" d="M49.571 12.365h5.224v1h-5.224z"/><path d="M45.135 26.604c0-8.715-7.065-15.781-15.781-15.781s-15.78 7.065-15.78 15.781c0 6.573 4.02 12.202 9.734 14.576v9.436h11.87v-9.354c5.83-2.32 9.957-8.002 9.957-14.658z" style="fill:#f9dd9d"/><path class="st0" d="M23.308 41.303h11.87v9.312h-11.87z"/><circle class="st0" cx="29.355" cy="26.604" r="9.039"/><path class="st1" d="M29.354 36.143c-5.26 0-9.538-4.278-9.538-9.538s4.278-9.539 9.538-9.539 9.539 4.279 9.539 9.539-4.279 9.538-9.539 9.538zm0-18.078c-4.708 0-8.538 3.831-8.538 8.539s3.83 8.538 8.538 8.538 8.539-3.83 8.539-8.538-3.83-8.539-8.539-8.539z"/><path class="st1" d="M35.179 51.115h-11.87a.5.5 0 0 1-.5-.5V41.51a16.237 16.237 0 0 1-9.734-14.905c0-8.978 7.304-16.281 16.28-16.281s16.28 7.304 16.28 16.281c0 6.59-3.896 12.438-9.956 14.992v9.019a.5.5 0 0 1-.5.499zm-11.37-1h10.87v-8.854a.5.5 0 0 1 .315-.465c5.856-2.329 9.641-7.899 9.641-14.191 0-8.426-6.854-15.281-15.28-15.281s-15.28 6.855-15.28 15.281c0 6.195 3.7 11.735 9.426 14.113.187.078.309.26.309.462v8.935zM49.571 39.715h5.224v1h-5.224zM53.187 30.665h5.462v1h-5.462zM53.374 21.578h5.274v1h-5.274z"/><path class="st1" d="M23.5 46.943h11.679v1H23.5zM23.5 43.886h11.679v1H23.5zM23.5 40.709h11.679v1H23.5zM25.868 52.448h6.75v1h-6.75z"/><path class="st1" d="M28.743 53.115h1v4.542h-1z"/><path class="st1" d="M29.243 61.907c-1.206 0-2.188-.981-2.188-2.188s.981-2.188 2.188-2.188 2.188.981 2.188 2.188-.982 2.188-2.188 2.188zm0-3.375a1.189 1.189 0 1 0 .002 2.378 1.189 1.189 0 0 0-.002-2.378z"/></svg>